<svg width="424" height="401" viewBox="0 0 424 401" fill="none" xmlns="http://www.w3.org/2000/svg">
<path d="M19.0616 184.072C21.4214 184.072 23.3344 182.159 23.3344 179.8C23.3344 177.44 21.4214 175.527 19.0616 175.527C16.7018 175.527 14.7888 177.44 14.7888 179.8C14.7888 182.159 16.7018 184.072 19.0616 184.072Z" stroke="#A0A0A0" stroke-width="2"/>
<path d="M27.4343 180.235C36.0527 179.348 49.5757 180.397 51.1741 187.064C52.7724 193.73 46.6689 196.168 43.4175 196.554C31.0384 198.522 14.6243 197.596 14.6243 187.064" stroke="#A0A0A0" stroke-width="2" stroke-linecap="round"/>
<path d="M24.3205 190.318C24.8651 190.318 25.3065 189.876 25.3065 189.332C25.3065 188.787 24.8651 188.346 24.3205 188.346C23.7759 188.346 23.3345 188.787 23.3345 189.332C23.3345 189.876 23.7759 190.318 24.3205 190.318Z" stroke="#A0A0A0" stroke-width="2"/>
<path d="M33.852 189.332C33.852 189.811 33.4057 190.318 32.7016 190.318C31.9975 190.318 31.5513 189.811 31.5513 189.332C31.5513 188.853 31.9975 188.346 32.7016 188.346C33.4057 188.346 33.852 188.853 33.852 189.332Z" stroke="#A0A0A0" stroke-width="2"/>
<path d="M41.083 190.318C41.6275 190.318 42.069 189.876 42.069 189.332C42.069 188.787 41.6275 188.346 41.083 188.346C40.5384 188.346 40.0969 188.787 40.0969 189.332C40.0969 189.876 40.5384 190.318 41.083 190.318Z" stroke="#A0A0A0" stroke-width="2"/>
<path d="M343.302 63.7769C345.48 63.7769 347.246 62.0111 347.246 59.8328C347.246 57.6545 345.48 55.8887 343.302 55.8887C341.123 55.8887 339.357 57.6545 339.357 59.8328C339.357 62.0111 341.123 63.7769 343.302 63.7769Z" stroke="#A0A0A0" stroke-width="2"/>
<path d="M351.05 56.3809C353.94 56.3809 362.199 56.3809 366.084 56.3809C369.231 56.3809 370.745 57.077 370.745 61.9493C370.745 66.6832 370.706 72.8154 370.745 75.2903C370.773 77.0303 369.906 78.956 367.016 79.2344C364.126 79.5128 352.526 79.3505 347.088 79.2344C345.068 79.2344 341.494 78.0893 341.494 73.4339V68.2136" stroke="#A0A0A0" stroke-width="2" stroke-linecap="round"/>
<path d="M349.053 64.5986L356.284 69.5288" stroke="#A0A0A0" stroke-width="2" stroke-linecap="round"/>
<path d="M356.284 69.5292L369.431 57.3682" stroke="#A0A0A0" stroke-width="2" stroke-linecap="round"/>
<path d="M359.616 66.5713L363.209 70.1867L366.802 73.8022" stroke="#A0A0A0" stroke-width="2" stroke-linecap="round"/>
<path d="M346.424 73.8022L351.724 66.5713" stroke="#A0A0A0" stroke-width="2" stroke-linecap="round"/>
<path d="M372.206 310.279C371.114 311.373 370.172 312.316 369.523 312.965C367.832 314.658 366.056 313.671 365.38 312.965L354.59 302.57C352.998 301.089 351.651 299.627 345.631 293.884C345.015 293.267 344.038 291.691 345.062 290.324C346.086 288.957 351.841 281.78 354.59 278.362C355.425 277.154 357.237 275.716 359.549 277.866C361.54 279.717 368.366 286.125 374.197 290.997" stroke="#A0A0A0" stroke-width="2" stroke-linecap="round"/>
<path d="M354.477 278.731C354.816 284.966 357.104 295.003 368.938 298.781" stroke="#A0A0A0" stroke-width="2" stroke-linecap="round"/>
<path d="M384.487 299.263C383.945 297.885 379.78 296.279 378.206 299.263C376.584 302.341 377.825 304.934 378.88 305.443C380.227 306.092 382.206 306.431 384.296 302.695" stroke="#A0A0A0" stroke-width="2" stroke-linecap="round"/>
<path d="M384.832 297.344C384.71 298.064 384.585 298.367 384.487 299.263C384.359 300.43 384.276 301.654 384.296 302.695C384.336 304.521 384.697 305.781 385.723 305.173C387.78 303.953 388.891 302.952 389.187 301.932C389.68 300.216 389.683 296.931 386.909 294.783C383.563 292.19 379.79 292.26 376.822 294.783C373.875 297.287 373.069 301.295 373.23 303.375C373.407 305.65 375.105 310.535 380.644 310.612C386.183 310.688 389.184 307.702 389.644 306.304" stroke="#A0A0A0" stroke-width="2" stroke-linecap="round"/>
<path d="M92.8495 258.212C91.6679 253.65 87.7441 245.238 81.5045 248.081C75.2646 250.925 78.9044 256.02 81.5045 258.212C83.2541 259.397 87.0155 260.665 88.0633 256.257C89.1111 251.849 84.6953 250.036 83.4542 251.992C82.7998 252.762 82.0607 254.693 84.3407 256.257" stroke="#A0A0A0" stroke-width="2" stroke-linecap="round"/>
<path d="M120.696 36.976C120.406 35.3439 122.114 34.0882 123.586 34.8511L126.529 36.3765C127.698 36.9824 129.09 36.9747 130.252 36.3554L133.177 34.7961C134.64 34.0163 136.362 35.2522 136.091 36.8876L135.549 40.1586C135.348 41.3761 135.72 42.6138 136.548 43.5164L136.72 43.6929L139.107 45.9933C140.301 47.1435 139.658 49.1627 138.019 49.4107L134.741 49.9061C133.52 50.0906 132.458 50.8272 131.856 51.8941L131.742 52.1114L130.292 55.093C129.566 56.5835 127.447 56.5956 126.704 55.1137L125.22 52.1492C124.668 51.0455 123.639 50.2623 122.438 50.019L122.196 49.9779L118.912 49.5197C117.27 49.2905 116.604 47.2787 117.784 46.1149L120.145 43.7871C121.083 42.8628 121.505 41.536 121.275 40.2398L120.696 36.976Z" stroke="#A0A0A0" stroke-width="2"/>
<path d="M222.184 184.045V211.982" stroke="#F9FAFB" stroke-width="2" stroke-linecap="round"/>
<path d="M243.219 187.332V213.954" stroke="#F9FAFB" stroke-width="2" stroke-linecap="round"/>
<path d="M194.019 308.312C187.073 309.177 170.812 312.366 167.25 318.853C166.182 320.799 164.942 325.534 168.532 328.907C172.123 332.28 178.684 331.394 181.516 330.529L198.026 323.88" stroke="#F9FAFB" stroke-width="2" stroke-linecap="round"/>
<path d="M288.675 259.364C275.715 259.781 218.472 287.494 191.47 301.299C189.171 316.51 198.874 327.432 204.013 330.991C230.927 323.177 286.166 307.341 291.811 306.508C297.455 305.675 303.047 301.646 305.137 299.736C319.77 282.65 308.97 268.133 301.74 263.011C296.594 259.364 292.151 259.252 288.675 259.364Z" fill="#F9FAFB"/>
<path d="M167.272 255.488C176.455 256.101 216.515 271.626 235.495 279.763L192.087 301.454C172.66 307.151 160.726 305.275 157.082 304.047C136.044 293.911 144.286 268.906 152.645 259.643C158.032 255.058 163.982 255.269 167.272 255.488Z" fill="#F9FAFB"/>
<path d="M269.476 311.271C275.215 314.029 278.318 317.642 279.892 320.606C283.264 328.323 277.209 332.961 270.297 330.78C266.477 329.575 265.577 328.767 263.553 327.09C262.527 326.238 257.732 321.783 252.258 316.521" stroke="#F9FAFB" stroke-width="2" stroke-linecap="round"/>
<path d="M159.651 186.564L163.324 253.312C163.616 258.614 167.999 262.763 173.309 262.763H283.178C288.701 262.763 293.178 258.286 293.178 252.763V184.484C293.178 178.909 288.619 174.41 283.044 174.485L169.501 176.016C163.816 176.092 159.338 180.887 159.651 186.564Z" fill="#F9FAFB"/>
<rect x="163.022" y="263.914" width="130.156" height="6.24486" rx="3.12243" fill="#F9FAFB"/>
<path d="M243.548 139.674C254.997 139.509 280.196 148.219 290.22 175.664" stroke="#F9FAFB" stroke-width="2" stroke-linecap="round"/>
<path d="M218.404 139.509C192.274 144.603 179.784 155.778 169.924 177.307" stroke="#F9FAFB" stroke-width="2" stroke-linecap="round"/>
<path d="M305.832 165.502L312.241 154.82" stroke="#F9FAFB" stroke-width="2" stroke-linecap="round"/>
<path d="M312.241 168.461L320.951 161.23" stroke="#F9FAFB" stroke-width="2" stroke-linecap="round"/>
<path d="M313.556 173.39C315.254 174.048 319.111 174.672 320.951 171.911" stroke="#F9FAFB" stroke-width="2" stroke-linecap="round"/>
<path d="M145.438 163.502L135.578 153.313" stroke="#F9FAFB" stroke-width="2" stroke-linecap="round"/>
<path d="M155.462 161.859L149.546 146.575" stroke="#F9FAFB" stroke-width="2" stroke-linecap="round"/>
<path d="M142.973 169.254L135.578 166.46" stroke="#F9FAFB" stroke-width="2" stroke-linecap="round"/>
<path d="M296.793 194.097C302.874 203.629 309.776 214.968 296.793 236.304" stroke="#F9FAFB" stroke-width="2" stroke-linecap="round"/>
<path d="M243.712 140.495C245.191 136.222 243.844 133.347 242.529 132.799C234.641 140.03 222.677 137.346 218.24 132.963C216.662 134.409 217.582 138.687 218.24 140.002C226.785 149.468 238.946 144.165 243.712 140.495Z" fill="#F9FAFB"/>
<path d="M208.708 166.789L209.371 165.772C213.092 160.061 220.333 157.781 226.655 160.33V160.33C232.331 162.618 238.835 161.031 242.818 156.384L247.985 150.355" stroke="#F9FAFB" stroke-width="2" stroke-linecap="round"/>
<path d="M157.27 200.15C154.805 205.957 151.88 220.035 159.9 229.896" stroke="#F9FAFB" stroke-width="2" stroke-linecap="round"/>
<path d="M266.372 73.3155C262.757 86.2982 260.949 87.4486 255.69 93.2004C255.69 87.516 254.714 77.9746 254.714 74.0016C237.495 74.0016 222.963 66.9724 217.849 63.4578C218.032 75.3769 206.858 83.1701 206.858 83.1701C206.858 83.1701 208.461 87.9836 209.377 98.7565C210.11 107.375 208.003 105.709 206.858 103.799C203.561 93.1638 198.157 96.006 195.867 98.7565C167.77 53.1018 210.98 44.2804 219.223 45.1208C225.451 39.8031 234.137 35.6358 240.243 35.0246C262.264 32.8202 272.235 52.2644 266.372 73.3155Z" fill="#F9FAFB"/>
<path d="M207.243 111.924C210.201 129.983 230.056 142.969 244.384 128.34C258.711 113.711 255.844 86.9327 254.313 74.437" stroke="#F9FAFB" stroke-width="2" stroke-linecap="round"/>
<path d="M195.543 97.6377C193.735 102.075 195.431 111.907 207.243 111.907" stroke="#F9FAFB" stroke-width="2" stroke-linecap="round"/>
<path d="M200.752 100.075C200.491 101.025 200.7 103.274 203.628 104.677" stroke="#F9FAFB" stroke-width="2" stroke-linecap="round"/>
<path d="M253.915 109.606C257.771 107.999 260.489 102.047 259.443 92.5151" stroke="#F9FAFB" stroke-width="2" stroke-linecap="round"/>
<path d="M232.223 120.453C236.002 121.439 235.763 118.726 238.632 116.345" stroke="#F9FAFB" stroke-width="2" stroke-linecap="round"/>
<ellipse cx="243.506" cy="97.4944" rx="2.46508" ry="2.46508" fill="#F9FAFB"/>
<ellipse cx="221.813" cy="97.8225" rx="2.46508" ry="2.46508" fill="#F9FAFB"/>
<path d="M216.446 92.1867C216.965 90.6594 219.203 87.8338 224.006 88.7502" stroke="#F9FAFB" stroke-width="2" stroke-linecap="round"/>
<path d="M239.453 89.2283C240.599 88.2362 243.714 86.8472 247.013 89.2283" stroke="#F9FAFB" stroke-width="2" stroke-linecap="round"/>
<path d="M231.502 96.1299C231.119 99.3753 230.859 105.957 232.88 106.319" stroke="#F9FAFB" stroke-width="2" stroke-linecap="round"/>
<path d="M326.21 245.206C370.089 257.367 448.905 271.336 413.145 229.923C401.861 218.802 385.208 205.765 358.421 194.261" stroke="#A0A0A0" stroke-width="2" stroke-linecap="round"/>
<path d="M373.704 160.239C400.984 142.764 444.928 106.665 402.463 102.063C359.998 97.4617 321.225 113.403 307.147 121.948" stroke="#A0A0A0" stroke-width="2" stroke-linecap="round"/>
<path d="M268.034 134.703C286.111 95.7549 315.364 15.0318 287.755 3.72531C253.244 -10.4078 208.544 30.3482 172.061 127.637" stroke="#A0A0A0" stroke-width="2" stroke-linecap="round"/>
<path d="M131.857 101.152C91.4295 79.0213 8.89866 44.9813 2.19365 85.8687C-4.51136 126.756 77.4059 160.862 119.203 172.804" stroke="#A0A0A0" stroke-width="2" stroke-linecap="round"/>
<path d="M129.934 194.261C70.9368 224.335 -2.98613 265.928 37.9605 287.606C54.7228 296.48 97.6153 291.057 117.336 283.004" stroke="#A0A0A0" stroke-width="2" stroke-linecap="round"/>
<ellipse cx="226.457" cy="391.14" rx="81.3476" ry="9.86031" fill="#A0A0A0"/>
</svg>
